<svg width="512" height="512" viewBox="0 0 512 512" fill="none" xmlns="http://www.w3.org/2000/svg">
<g clip-path="url(#clip0_2_2)">
<path d="M414.285 0H97.718C73.132 0 53.202 19.931 53.202 44.516V432.845H458.8V44.516C458.8 19.931 438.87 0 414.285 0Z" fill="#00BCD4"/>
<path d="M132.357 0H97.718C73.132 0 53.202 19.931 53.202 44.516V432.845H132.358V0H132.357Z" fill="#66DDEC"/>
<path d="M132.357 353.69C88.641 353.69 53.201 389.129 53.201 432.846C53.201 476.562 88.64 512.002 132.357 512.002H422.764C442.667 512.002 458.8 495.868 458.8 475.966V353.69H132.357Z" fill="#009CB0"/>
<path d="M132.357 465.829C114.17 465.829 99.373 451.033 99.373 432.845C99.373 414.658 114.17 399.861 132.357 399.861H458.8V465.828H132.357V465.829Z" fill="#E6F4F1"/>
<path opacity="0.15" d="M458.8 399.861H132.357C114.17 399.861 99.373 414.657 99.373 432.844H458.8V399.861Z" fill="#333333"/>
</g>
<defs>
<clipPath id="clip0_2_2">
<rect width="512.001" height="512.001" fill="white"/>
</clipPath>
</defs>
</svg>
